<?xml version="1.0" encoding="utf-8"?>
<!-- Generator: Adobe Illustrator 28.2.0, SVG Export Plug-In . SVG Version: 6.00 Build 0)  -->
<svg version="1.1" xmlns="http://www.w3.org/2000/svg" xmlns:xlink="http://www.w3.org/1999/xlink" x="0px" y="0px"
	 viewBox="0 0 1000 1000" style="enable-background:new 0 0 1000 1000;" xml:space="preserve">
<style type="text/css">
	.st0{display:none;}
	.st1{display:inline;fill:#10181F;}
	.st2{fill:#FFFFFF;}
	.st3{fill:#9C253B;}
	.st4{fill:#10181F;}
</style>
<g id="BG_x27_" class="st0">
</g>
<g id="New_group_00000025425028626541985810000009740470624951580052_">
	<g id="Layer_7_xA0_Image_00000072962491246989359870000001724782241681296007_">
		<g>
			<path class="st3" d="M763.53,774.97c7.55-2.11,10.5-15.22,7.09-20.17c0,0-8.4,16.95-30.03,16.53c-1.24-2.55-3.11-3.98-7.98-6.89
				c-19.91-11.88-46.77-24.27-69.05-17.29c-0.65,0.2-1.29,0.41-1.92,0.62c-3.68,1.2-7.07,2.44-10.19,3.7
				c-3.56,1.44-6.75,2.89-9.61,4.3c-3.94,1.95-24.21,18.12-24.21,18.12c-4.15,2.37-43.66,18.29-84.47-6.42c0,0,0,0,0,0
				c-30.84-21.2-41.85-52.36-60.8-74.21c-8.38-9.66-26.4-29.43-50.4-35.85c-4.98,11.2-7.66,21.59-7.56,31.91
				c41.14,32.68,48.95,76.24,88.94,103.38l0,0c0,0,30.84,20.04,62.43,21.17c32.76,1.16,59.78-1.2,59.78-1.2
				c25.87,10.26,31.15,11.98,49.23,8.6c30.81-5.75,56.62-30.62,58.85-33.04c1.14-1.24,6.05-4.33,7.91-8.65
				c20.31-0.09,30.05,16.32,30.05,16.32C774.32,784.57,770.17,777.39,763.53,774.97z M697.65,756.02
				c8.57,1.86,9.52,12.84,9.52,12.84l-26.38-6.95C680.78,761.92,692.09,754.81,697.65,756.02z M703.51,801.95
				c-5.27,2.15-17.63-2.92-17.63-2.92l24.8-11.37C710.68,787.67,711.63,798.65,703.51,801.95z"/>
			<path class="st3" d="M477.65,860.01c0.93-2.68,0.62-5.01-0.77-10.51c-5.68-22.48-15.91-50.23-36.6-61.05
				c-0.6-0.32-1.2-0.62-1.79-0.92c-3.45-1.75-6.73-3.27-9.82-4.59c-3.53-1.5-6.82-2.74-9.83-3.75c-4.16-1.4-29.93-4.3-29.93-4.3
				c-4.61-1.26-43.81-17.94-55.19-64.27c0,0,0,0,0,0c-6.82-36.79,7.43-66.62,9.48-95.47c0.91-12.76,2.14-39.48-10.29-60.99
				c-11.44,4.4-20.68,9.85-27.91,17.22c5.98,52.2-19.3,88.52-10.21,135.99l0,0c0,0,7.64,35.98,29.18,59.11
				c22.34,23.99,43.12,41.42,43.12,41.42c11.04,25.54,13.56,30.49,28.74,40.89c25.85,17.71,61.69,18.39,64.98,18.25
				c1.68-0.07,7.34,1.21,11.71-0.52c14.42,14.29,9.71,32.79,9.71,32.79c9.94-6.1,12.08-14.1,9.1-20.51
				c6.83,3.85,18.19-3.34,19.27-9.25C510.58,869.56,492.65,875.6,477.65,860.01z M429.78,855.44c-5.24-2.21-10.4-14.53-10.4-14.53
				l25.58,9.5C444.96,850.42,437.87,858.85,429.78,855.44z M455.76,834.63l-13.74-23.57c0,0,13.02,2.97,16.09,7.76
				C462.86,826.2,455.76,834.63,455.76,834.63z"/>
			<path class="st3" d="M292.93,551.73c0.15-0.14,0.24-0.22,0.24-0.22c0,0,0,0,0,0.01c10.2-8.85,31.75-20.77,31.75-20.77
				c3.4-2.21,7.12-4.63,10.91-7.12c0,0,2.61-1.4,6.76-4.08c14.93,31.92,37.76,49.7,13.88,150.43c-1.34,5.67-9.53,46.22,20.14,71.91
				c19.74,17.09,44.9,14.13,59.98,10.31c-14.63-21.75-15.52-23.78-25.85-34.35c-21.67-1.58-19.58-25.92-18.76-33.89
				c0.01-0.2,0.02-0.32,0.02-0.32c0,0,0,0,0,0c0.96-13.47,7.76-37.14,7.76-37.14c0.84-3.97,1.76-8.31,2.68-12.75
				c0,0,0.86-2.83,1.9-7.67c33.13,12.01,61.84,8.45,116.18,96.56c3.06,4.96,25.94,39.43,65.09,36.61
				c26.04-1.88,41.73-21.76,49.71-35.12c-25.72-5.03-27.79-5.84-42.56-6.01c-16.44,14.2-32.17-4.48-37.23-10.7
				c-0.14-0.15-0.22-0.24-0.22-0.24c0,0,0,0,0,0c-8.85-10.2-20.77-31.75-20.77-31.75c-2.21-3.4-4.63-7.12-7.12-10.91
				c0,0-1.4-2.61-4.08-6.76c31.92-14.93,49.7-37.76,150.43-13.88c5.67,1.34,46.22,9.53,71.91-20.14
				c17.09-19.74,14.13-44.9,10.31-59.98c-21.75,14.63-23.78,15.52-34.35,25.85c-1.59,21.67-25.92,19.58-33.89,18.76
				c-0.2-0.01-0.32-0.02-0.32-0.02c0,0,0,0,0,0c-13.47-0.96-37.14-7.76-37.14-7.76c-3.97-0.84-8.31-1.76-12.75-2.68
				c0,0-2.83-0.86-7.67-1.9c12.01-33.13,8.45-61.84,96.56-116.18c4.96-3.06,39.43-25.94,36.61-65.09
				c-1.87-26.04-21.76-41.73-35.12-49.71c-5.03,25.72-5.84,27.79-6.01,42.56c14.2,16.44-4.48,32.17-10.7,37.23
				c-0.15,0.14-0.24,0.22-0.24,0.22c0,0,0,0,0,0c-10.2,8.85-31.75,20.77-31.75,20.77c-3.4,2.21-7.12,4.63-10.91,7.12
				c0,0-2.61,1.4-6.76,4.08c-14.93-31.92-37.76-49.7-13.88-150.43c1.34-5.67,9.53-46.22-20.14-71.91
				c-19.74-17.09-44.9-14.13-59.98-10.31c14.63,21.75,15.52,23.78,25.85,34.35c21.67,1.59,19.58,25.92,18.76,33.89
				c-0.01,0.2-0.02,0.32-0.02,0.32c0,0,0,0,0,0c-0.96,13.47-7.76,37.14-7.76,37.14c-0.84,3.97-1.76,8.31-2.68,12.75
				c0,0-0.86,2.83-1.9,7.67c-33.13-12.01-61.84-8.45-116.18-96.56c-3.06-4.96-25.94-39.43-65.09-36.61
				c-26.04,1.88-41.73,21.76-49.71,35.12c25.72,5.03,27.79,5.84,42.56,6.01c16.44-14.2,32.17,4.48,37.23,10.7
				c0.14,0.15,0.22,0.24,0.22,0.24c0,0,0,0-0.01,0c8.85,10.2,20.77,31.75,20.77,31.75c2.21,3.4,4.63,7.12,7.12,10.91
				c0,0,1.4,2.61,4.08,6.76c-31.92,14.93-49.7,37.76-150.43,13.88c-5.67-1.34-46.22-9.53-71.91,20.14
				c-17.09,19.74-14.13,44.9-10.31,59.98c21.75-14.63,23.78-15.52,34.35-25.85c1.59-21.67,25.92-19.58,33.89-18.76
				c0.2,0.01,0.32,0.02,0.32,0.02c0,0,0,0,0,0c13.47,0.96,37.14,7.76,37.14,7.76c3.97,0.84,8.31,1.76,12.75,2.68
				c0,0,2.83,0.86,7.67,1.9c-12.01,33.13-8.45,61.84-96.56,116.18c-4.96,3.06-39.43,25.94-36.61,65.09
				c1.87,26.04,21.76,41.73,35.12,49.71c5.03-25.72,5.84-27.79,6.01-42.56C268.04,572.52,286.72,556.8,292.93,551.73z
				 M422.65,403.31c0.84-0.1,1.68-0.2,2.52-0.31c0.1-0.01,0.21-0.03,0.31-0.04c23.53-3.25,63.7-23.98,81.15-33.47
				c1.99,1.81,4.06,3.59,6.23,5.32c0.07,0.05,0.14,0.11,0.21,0.16c0.66,0.53,1.33,1.05,2.01,1.56c0.08,0.06,0.17,0.13,0.25,0.19
				c18.93,14.34,62,28.08,81.05,33.71c0.13,2.68,0.34,5.41,0.64,8.17c0.01,0.09,0.02,0.17,0.03,0.26c0.1,0.84,0.2,1.68,0.31,2.52
				c0.01,0.1,0.03,0.21,0.04,0.31c3.25,23.53,23.98,63.7,33.47,81.14c-1.81,1.99-3.59,4.06-5.32,6.23
				c-0.05,0.07-0.11,0.14-0.16,0.21c-0.53,0.66-1.05,1.33-1.56,2.01c-0.06,0.08-0.13,0.17-0.19,0.25
				c-14.34,18.93-28.08,62-33.71,81.05c-2.68,0.13-5.41,0.34-8.17,0.64c-0.09,0.01-0.17,0.02-0.26,0.03
				c-0.84,0.1-1.68,0.2-2.52,0.31c-0.1,0.01-0.21,0.03-0.31,0.04c-23.53,3.25-63.7,23.98-81.15,33.47
				c-1.99-1.81-4.06-3.59-6.23-5.32c-0.07-0.05-0.14-0.11-0.21-0.16c-0.66-0.53-1.33-1.05-2.01-1.56c-0.08-0.06-0.17-0.13-0.25-0.19
				c-18.93-14.34-62-28.08-81.05-33.71c-0.13-2.68-0.34-5.41-0.64-8.17c-0.01-0.09-0.02-0.17-0.03-0.26
				c-0.1-0.84-0.2-1.68-0.31-2.52c-0.01-0.1-0.03-0.21-0.04-0.31c-3.25-23.53-23.98-63.7-33.47-81.15c1.81-1.99,3.59-4.06,5.32-6.23
				c0.05-0.07,0.11-0.14,0.16-0.21c0.53-0.66,1.05-1.33,1.56-2.01c0.06-0.08,0.13-0.17,0.19-0.25c14.34-18.93,28.08-62,33.71-81.05
				c2.68-0.13,5.41-0.34,8.17-0.64C422.48,403.33,422.57,403.32,422.65,403.31z"/>
			<path class="st3" d="M235.91,728.82c11.88-19.91,24.27-46.77,17.29-69.05c-0.2-0.65-0.41-1.28-0.62-1.92
				c-1.2-3.68-2.44-7.07-3.7-10.19c-1.44-3.56-2.89-6.75-4.3-9.61c-1.95-3.94-18.12-24.21-18.12-24.21
				c-2.37-4.15-18.29-43.66,6.42-84.47l0,0c21.2-30.84,52.36-41.85,74.21-60.8c9.66-8.38,29.43-26.4,35.85-50.4
				c-11.2-4.98-21.59-7.65-31.91-7.56c-32.68,41.14-76.24,48.95-103.38,88.94l0,0c0,0-20.04,30.84-21.17,62.43
				c-1.16,32.76,1.2,59.78,1.2,59.78c-10.26,25.87-11.98,31.15-8.6,49.23c5.75,30.81,30.62,56.62,33.04,58.85
				c1.24,1.14,4.33,6.05,8.65,7.91c0.09,20.31-16.32,30.05-16.32,30.05c11.34,2.72,18.51-1.43,20.94-8.07
				c2.11,7.55,15.22,10.5,20.17,7.09c0,0-16.95-8.4-16.53-30.03C231.58,735.56,233.01,733.69,235.91,728.82z M198.41,699.71
				c-2.15-5.27,2.92-17.63,2.92-17.63l11.37,24.8C212.69,706.89,201.71,707.84,198.41,699.71z M238.44,676.99
				c0,0,7.1,11.31,5.89,16.87c-1.87,8.57-12.84,9.52-12.84,9.52L238.44,676.99z"/>
			<path class="st3" d="M211.91,436.49c0.32-0.6,0.62-1.2,0.92-1.79c1.75-3.45,3.27-6.73,4.59-9.82c1.5-3.53,2.73-6.82,3.75-9.83
				c1.41-4.16,4.3-29.93,4.3-29.93c1.26-4.61,17.94-43.81,64.27-55.19l0,0c36.79-6.82,66.62,7.43,95.47,9.48
				c12.76,0.91,39.48,2.14,60.99-10.29c-4.4-11.44-9.85-20.68-17.21-27.91c-52.2,5.98-88.52-19.3-135.99-10.21l0,0
				c0,0-35.98,7.64-59.11,29.18c-23.99,22.34-41.42,43.12-41.42,43.12c-25.54,11.04-30.49,13.56-40.89,28.74
				c-17.71,25.85-18.39,61.69-18.25,64.98c0.07,1.68-1.21,7.34,0.52,11.71c-14.29,14.42-32.79,9.71-32.79,9.71
				c6.1,9.94,14.1,12.08,20.51,9.1c-3.85,6.83,3.34,18.19,9.25,19.27c0,0-6.04-17.93,9.54-32.93c2.68,0.93,5.01,0.62,10.51-0.77
				C173.34,467.41,201.09,457.18,211.91,436.49z M149.94,441.16c0,0-8.43-7.09-5.02-15.17c2.21-5.24,14.53-10.4,14.53-10.4
				L149.94,441.16z M181.54,454.32c-7.38,4.74-15.81-2.35-15.81-2.35l23.57-13.74C189.3,438.23,186.32,451.25,181.54,454.32z"/>
			<path class="st3" d="M240.62,221.6c-7.55,2.11-10.5,15.22-7.09,20.17c0,0,8.4-16.95,30.03-16.53c1.24,2.55,3.11,3.98,7.98,6.89
				c19.91,11.88,46.77,24.27,69.05,17.29c0.65-0.2,1.28-0.41,1.92-0.62c3.68-1.2,7.07-2.44,10.19-3.7c3.56-1.44,6.75-2.89,9.6-4.3
				c3.94-1.95,24.21-18.12,24.21-18.12c4.15-2.37,43.66-18.29,84.47,6.42l0,0c30.84,21.2,41.85,52.36,60.8,74.21
				c8.38,9.66,26.4,29.43,50.4,35.85c4.98-11.2,7.65-21.59,7.56-31.91c-41.14-32.68-48.95-76.24-88.94-103.38l0,0
				c0,0-30.84-20.04-62.43-21.17c-32.76-1.16-59.78,1.2-59.78,1.2c-25.87-10.26-31.15-11.98-49.23-8.6
				c-30.81,5.75-56.62,30.62-58.85,33.04c-1.14,1.24-6.05,4.33-7.91,8.65c-20.31,0.09-30.05-16.32-30.05-16.32
				C229.83,212,233.98,219.17,240.62,221.6z M306.51,240.54c-8.57-1.86-9.52-12.84-9.52-12.84l26.38,6.95
				C323.37,234.65,312.06,241.75,306.51,240.54z M300.65,194.61c5.27-2.15,17.63,2.92,17.63,2.92l-24.8,11.37
				C293.47,208.9,292.52,197.92,300.65,194.61z"/>
			<path class="st3" d="M526.5,136.55c-0.93,2.68-0.62,5.01,0.77,10.51c5.68,22.48,15.91,50.23,36.6,61.05
				c0.6,0.32,1.2,0.62,1.79,0.92c3.45,1.75,6.73,3.27,9.82,4.59c3.53,1.5,6.82,2.74,9.83,3.75c4.16,1.41,29.93,4.3,29.93,4.3
				c4.61,1.26,43.81,17.94,55.19,64.27c0,0,0,0,0,0c6.82,36.79-7.43,66.62-9.48,95.47c-0.91,12.76-2.14,39.48,10.29,60.99
				c11.44-4.4,20.68-9.85,27.91-17.21c-5.98-52.2,19.3-88.52,10.21-135.99l0,0c0,0-7.64-35.98-29.18-59.11
				c-22.34-23.99-43.12-41.42-43.12-41.42c-11.04-25.54-13.56-30.49-28.74-40.89c-25.85-17.71-61.69-18.39-64.98-18.25
				c-1.68,0.07-7.34-1.21-11.71,0.52c-14.42-14.29-9.71-32.79-9.71-32.79c-9.94,6.1-12.08,14.1-9.1,20.51
				c-6.83-3.85-18.19,3.34-19.27,9.25C493.57,127.01,511.5,120.97,526.5,136.55z M574.37,141.12c5.24,2.21,10.4,14.53,10.4,14.53
				l-25.58-9.5C559.2,146.15,566.29,137.72,574.37,141.12z M548.39,161.93l13.74,23.57c0,0-13.02-2.97-16.09-7.76
				C541.3,170.37,548.39,161.93,548.39,161.93z"/>
			<path class="st3" d="M768.24,267.75c-11.88,19.91-24.27,46.77-17.29,69.05c0.2,0.65,0.41,1.28,0.62,1.92
				c1.2,3.68,2.44,7.07,3.7,10.19c1.44,3.56,2.89,6.75,4.3,9.61c1.95,3.94,18.12,24.21,18.12,24.21
				c2.37,4.15,18.29,43.66-6.42,84.47c0,0,0,0,0,0c-21.2,30.84-52.36,41.85-74.21,60.8c-9.67,8.38-29.43,26.4-35.85,50.4
				c11.2,4.98,21.59,7.65,31.91,7.56c32.68-41.14,76.24-48.95,103.38-88.94c0,0,0,0,0,0s20.04-30.84,21.17-62.43
				c1.16-32.76-1.2-59.78-1.2-59.78c10.26-25.87,11.98-31.15,8.6-49.23c-5.75-30.81-30.62-56.62-33.04-58.85
				c-1.24-1.14-4.33-6.05-8.65-7.91c-0.09-20.31,16.32-30.05,16.32-30.05c-11.34-2.72-18.51,1.43-20.94,8.07
				c-2.11-7.55-15.22-10.5-20.17-7.09c0,0,16.95,8.4,16.53,30.03C772.58,261.01,771.15,262.88,768.24,267.75z M805.75,296.85
				c2.15,5.27-2.92,17.63-2.92,17.63l-11.37-24.8C791.46,289.68,802.44,288.73,805.75,296.85z M765.71,319.58
				c0,0-7.1-11.31-5.89-16.87c1.86-8.57,12.84-9.52,12.84-9.52L765.71,319.58z"/>
			<path class="st3" d="M903.11,518.15c-6.1-9.94-14.1-12.08-20.51-9.1c3.85-6.83-3.34-18.19-9.25-19.27c0,0,6.04,17.93-9.54,32.93
				c-2.68-0.93-5.01-0.62-10.51,0.77c-22.48,5.68-50.23,15.91-61.05,36.6c-0.32,0.6-0.62,1.2-0.92,1.79
				c-1.75,3.45-3.27,6.73-4.59,9.82c-1.5,3.53-2.73,6.82-3.75,9.83c-1.41,4.16-4.3,29.93-4.3,29.93
				c-1.26,4.61-17.94,43.81-64.27,55.19l0,0c-36.79,6.82-66.62-7.43-95.47-9.48c-12.76-0.91-39.48-2.14-60.99,10.29
				c4.4,11.44,9.85,20.68,17.21,27.91c52.2-5.98,88.52,19.3,135.99,10.21l0,0c0,0,35.98-7.64,59.11-29.18
				c23.99-22.34,41.42-43.12,41.42-43.12c25.54-11.04,30.49-13.56,40.89-28.74c17.71-25.85,18.39-61.69,18.25-64.98
				c-0.07-1.68,1.21-7.34-0.52-11.71C884.61,513.44,903.11,518.15,903.11,518.15z M814.86,558.34c0,0,2.97-13.02,7.76-16.09
				c7.38-4.74,15.81,2.35,15.81,2.35L814.86,558.34z M859.24,570.58c-2.21,5.24-14.53,10.4-14.53,10.4l9.5-25.58
				C854.21,555.4,862.64,562.49,859.24,570.58z"/>
		</g>
	</g>
	<g id="Layer_19_xA0_Image_00000036942374971961990170000013959000896048936631_">
	</g>
</g>
</svg>
